<svg xmlns="http://www.w3.org/2000/svg" xmlns:xlink="http://www.w3.org/1999/xlink" version="1.1" x="0px" y="0px" viewBox="0 0 90 112.5" style="enable-background:new 0 0 90 90;" xml:space="preserve"><path d="M85.0082932,82.9449844L64.159462,62.0961456l3.5842056-2.834053  c1.0039215-0.7935944,1.1738586-2.2513885,0.3802643-3.2553101c-0.7963409-1.003006-2.250473-1.1726379-3.2551575-0.3801079  l-4.0088234,3.16996l-1.8011742-1.8011703l5.5376434-4.7707176c0.3256989-0.2815018,0.5195618-0.6838608,0.536171-1.1138077  c0.0157089-0.4290199-0.1485977-0.8460236-0.4521942-1.1496239l-9.8322334-9.8322334  c-0.3036003-0.3035965-0.7205811-0.4678841-1.1496239-0.452198c-0.4299469,0.016613-0.8323059,0.2104797-1.1138077,0.5361786  l-4.7704124,5.5379448l-1.8014793-1.8014793l3.1699638-4.0088234c0.7934418-1.0037651,0.6190872-2.4644585-0.3801079-3.2551575  c-1.0039215-0.7935944-2.4618683-0.6238098-3.2553139,0.3802605l-2.8340492,3.5842094l-1.6923561-1.6923523l4.9213104-5.7119865  c0.5277824-0.612545,0.4936447-1.5288277-0.0784912-2.1009617l-7.8954239-7.8954239  c-0.5721436-0.5721455-1.48843-0.6062851-2.1009636-0.0784912l-5.7124538,4.9208412l-1.6928101-1.692812l3.5842113-2.8340511  c1.0040703-0.7934437,1.1738548-2.2513905,0.3802605-3.255312c-0.7897854-0.9964523-2.2513905-1.1735516-3.2551594-0.3801079  l-4.0088234,3.1699619l-1.8010197-1.8010216l5.537487-4.7708702c0.3256989-0.2814999,0.5195637-0.6838598,0.5361767-1.1138067  c0.0157108-0.4290209-0.1485996-0.8460245-0.452198-1.1496239l-9.8322315-9.8322315  c-0.3035984-0.3035994-0.7205791-0.4678855-1.1496239-0.4521985c-0.4299469,0.0166128-0.8323078,0.2104774-1.1138077,0.5361762  l-4.7702599,5.5380979L7.9649172,5.9016037c-0.7039785-0.7039785-1.844305-0.7039785-2.5482841,0  C4.712502,6.6057348,4.712502,7.7460618,5.4164805,8.4500408L9.7578611,12.79142l-4.9197741,5.7113876  c-0.527946,0.6126862-0.4938064,1.5289707,0.0783386,2.1011162l7.8954248,7.8954239  c0.5721331,0.572134,1.4884176,0.6062737,2.1011152,0.0783386l5.7109184-4.9202423l1.6923542,1.6923542l-3.5842113,2.8340511  c-1.0040722,0.7934437-1.1737041,2.2512379-0.3802605,3.2553101c0.0573044,0.0719376,0.1172142,0.1391621,0.1809101,0.202858  c0.8202782,0.8202782,2.1425705,0.9135399,3.0743999,0.1770992l4.0086708-3.1698093l1.8011742,1.8011742l-5.5367279,4.7698021  c-0.3256989,0.2815018-0.5194111,0.6837082-0.5360222,1.1136551c-0.0156879,0.4290428,0.1484451,0.8461761,0.4520454,1.1497765  l9.8322315,9.8322296c0.3035984,0.3036003,0.7207565,0.4677582,1.1497765,0.4520493  c0.4299469-0.016613,0.8321533-0.2103271,1.1136551-0.536026l4.7704124-5.5361176l1.8005638,1.8005638L37.293045,47.505085  c-0.7364426,0.9318314-0.6431541,2.2541466,0.1771011,3.0744019c0.0637169,0.0637207,0.1309204,0.1236038,0.202858,0.180912  c1.0040703,0.7934418,2.4618683,0.6238098,3.2553101-0.3802643l2.834053-3.5842094l1.6928101,1.6928101l-4.9197731,5.7113876  c-0.5279465,0.6126862-0.4938087,1.5289726,0.0783348,2.1011162l7.8954277,7.8954239  c0.5721321,0.5721359,1.4884186,0.6062698,2.1011162,0.0783386l5.7109184-4.9202423l1.6923523,1.6923523l-3.5842094,2.834053  c-1.0040741,0.7934418-1.1737061,2.251236-0.3802643,3.2553101c0.0573082,0.0719376,0.117218,0.1391602,0.180912,0.202858  c0.8202782,0.820282,2.1425705,0.9135437,3.0744019,0.1771011l4.0086708-3.1698074l21.1467972,21.1467896  c0.7039719,0.7039795,1.8444519,0.7041321,2.548584,0C85.7124252,84.7894363,85.7122726,83.6489639,85.0082932,82.9449844z   M13.9827995,25.3004169L8.115345,19.4329624l10.02701-11.6398067l7.4793377,7.4793353L13.9827995,25.3004169z   M25.1576042,36.4752235l11.6398087-10.0270119l5.8674545,5.8674545L32.63694,43.9545593L25.1576042,36.4752235z   M49.6801147,60.9977341l-5.8674545-5.8674583l10.0270119-11.6398048l7.4793358,7.4793358L49.6801147,60.9977341z"/><text x="0" y="105" fill="#000000" font-size="5px" font-weight="bold" font-family="'Helvetica Neue', Helvetica, Arial-Unicode, Arial, Sans-serif">Created by Yazmin Alanis</text><text x="0" y="110" fill="#000000" font-size="5px" font-weight="bold" font-family="'Helvetica Neue', Helvetica, Arial-Unicode, Arial, Sans-serif">from the Noun Project</text></svg>