<svg xmlns="http://www.w3.org/2000/svg" xmlns:xlink="http://www.w3.org/1999/xlink" version="1.1" x="0px" y="0px" viewBox="0 0 95 118.75" enable-background="new 0 0 95 95" xml:space="preserve"><g><g><path d="M45.975,26.746c0,0.888-0.72,1.607-1.607,1.607s-1.607-0.72-1.607-1.607V4.875h-2.375v21.871    c0,0.888-0.721,1.607-1.607,1.607c-0.889,0-1.607-0.72-1.607-1.607V4.875h-2.376v21.871c0,0.888-0.72,1.607-1.607,1.607    s-1.606-0.72-1.606-1.607V4.875h-2.726v22.92c0,3.718,2.774,6.871,6.638,8.036v51.01c0,1.813,1.471,3.284,3.285,3.284    s3.284-1.471,3.284-3.284v-51.01c3.863-1.166,6.638-4.318,6.638-8.036V4.875h-2.725V26.746z"/></g><g><path d="M53.375,53.229h6.201v33.611c0,1.813,1.471,3.284,3.285,3.284s3.284-1.471,3.284-3.284V4.875    C54.179,4.875,53.375,53.229,53.375,53.229z"/></g></g><text x="0" y="110" fill="#000000" font-size="5px" font-weight="bold" font-family="'Helvetica Neue', Helvetica, Arial-Unicode, Arial, Sans-serif">Created by Guilherme Furtado</text><text x="0" y="115" fill="#000000" font-size="5px" font-weight="bold" font-family="'Helvetica Neue', Helvetica, Arial-Unicode, Arial, Sans-serif">from the Noun Project</text></svg>