<svg xmlns="http://www.w3.org/2000/svg" xmlns:xlink="http://www.w3.org/1999/xlink" version="1.1" x="0px" y="0px" viewBox="0 0 100 125" style="enable-background:new 0 0 100 100;" xml:space="preserve"><style type="text/css">
	.st0{fill:#050001;}
	.st1{fill-rule:evenodd;clip-rule:evenodd;}
</style><g><g><path d="M50,20.7c16.2,0,29.3,13.1,29.3,29.3S66.2,79.3,50,79.3S20.7,66.2,20.7,50S33.8,20.7,50,20.7 M50,15    c-19.3,0-35,15.7-35,35s15.7,35,35,35c19.3,0,35-15.7,35-35S69.3,15,50,15L50,15z"/><path d="M54,35.1L53.2,55c-0.1,1.6-1.4,2.8-2.9,2.7c-1.5-0.1-2.7-1.3-2.7-2.7l-0.8-19.9c-0.1-2,1.5-3.7,3.5-3.7s3.7,1.5,3.7,3.5    C54,34.9,54,35,54,35.1z"/><circle cx="50.4" cy="65.2" r="3.8"/></g></g><text x="0" y="115" fill="#000000" font-size="5px" font-weight="bold" font-family="'Helvetica Neue', Helvetica, Arial-Unicode, Arial, Sans-serif">Created by Miroku Sama</text><text x="0" y="120" fill="#000000" font-size="5px" font-weight="bold" font-family="'Helvetica Neue', Helvetica, Arial-Unicode, Arial, Sans-serif">from the Noun Project</text></svg>