<?xml version="1.0" encoding="utf-8"?><!DOCTYPE svg PUBLIC "-//W3C//DTD SVG 1.1//EN" "http://www.w3.org/Graphics/SVG/1.1/DTD/svg11.dtd"><svg version="1.1" xmlns="http://www.w3.org/2000/svg" xmlns:xlink="http://www.w3.org/1999/xlink" x="0px" y="0px" viewBox="11.294 -0.573 88.527 125" enable-background="new 11.294 -0.573 88.527 100" xml:space="preserve"><g><path d="M95.135,50.425c9.465-17.216,4.14-38.324-11.898-47.142C67.203-5.532,46.527,1.281,37.062,18.499
		c-9.83,17.878-3.851,45.4,5.097,53.814c-3.704,0.602-11.258,2.673-15.122,9.701c-0.962,1.749-1.739,3.396-2.428,4.857
		c-2.717,5.744-4.083,8.632-11.433,8.738c-1.052,0.018-1.893,0.886-1.882,1.937c0.016,0.711,0.412,1.328,0.99,1.646
		c0.286,0.157,0.604,0.246,0.949,0.235c9.726-0.136,11.977-4.905,14.828-10.927c0.694-1.476,1.42-3.006,2.322-4.647
		c3.361-6.112,10.658-7.557,13.184-7.878l-0.508,1.58c-0.423,1.332-1.124,3.514-1.548,4.845l-1.232,3.819
		c-0.424,1.334,0.358,2.211,1.734,1.953l1.891-0.363c1.378-0.259,3.625-0.683,5.001-0.938l1.902-0.36
		c1.363-0.265,1.942-1.475,1.257-2.697l-1.636-2.922c-0.681-1.22-1.802-3.217-2.484-4.438L47.134,75
		C59.087,77.934,85.269,68.372,95.135,50.425"/></g><text x="11.294" y="114.427" fill="#000000" font-size="5px" font-weight="bold" font-family="'Helvetica Neue', Helvetica, Arial-Unicode, Arial, Sans-serif">Created by Studio Het Mes</text><text x="11.294" y="119.427" fill="#000000" font-size="5px" font-weight="bold" font-family="'Helvetica Neue', Helvetica, Arial-Unicode, Arial, Sans-serif">from the Noun Project</text></svg>