<svg xmlns="http://www.w3.org/2000/svg" xmlns:xlink="http://www.w3.org/1999/xlink" version="1.1" x="0px" y="0px" viewBox="0 0 100 125" enable-background="new 0 0 100 100" xml:space="preserve"><path fill="#000000" d="M69.349,65.092c-0.635,0-1.277-0.167-1.862-0.515L46.294,51.946V21.239c0-2.012,1.631-3.644,3.644-3.644  c2.011,0,3.643,1.632,3.643,3.644v26.568l17.636,10.51c1.728,1.031,2.295,3.268,1.266,4.995  C71.799,64.457,70.589,65.092,69.349,65.092z"/><path fill="#000000" stroke="#010101" d="M49.938,3.877c-25.365,0-46,20.636-46,46s20.635,46,46,46c25.364,0,46-20.636,46-46  S75.302,3.877,49.938,3.877z M52.876,88.467c0.006-0.072,0.021-0.143,0.021-0.217c0-1.635-1.325-2.96-2.96-2.96  c-1.635,0-2.96,1.325-2.96,2.96c0,0.074,0.017,0.145,0.022,0.217c-19.005-1.435-34.216-16.645-35.65-35.65  c0.074,0.005,0.143,0.021,0.218,0.021c1.635,0,2.96-1.325,2.96-2.96s-1.326-2.96-2.96-2.96c-0.075,0-0.145,0.017-0.218,0.022  C12.783,27.933,27.994,12.722,47,11.287c-0.005,0.073-0.022,0.143-0.022,0.217c0,1.635,1.326,2.96,2.96,2.96  c1.634,0,2.959-1.326,2.959-2.96c0-0.075-0.016-0.144-0.021-0.217c19.006,1.435,34.217,16.645,35.652,35.651  c-0.073-0.005-0.143-0.022-0.217-0.022c-1.635,0-2.961,1.326-2.961,2.96s1.326,2.96,2.961,2.96c0.074,0,0.144-0.016,0.217-0.021  C87.094,71.822,71.883,87.032,52.876,88.467z"/><text x="0" y="115" fill="#000000" font-size="5px" font-weight="bold" font-family="'Helvetica Neue', Helvetica, Arial-Unicode, Arial, Sans-serif">Created by Olyn LeRoy</text><text x="0" y="120" fill="#000000" font-size="5px" font-weight="bold" font-family="'Helvetica Neue', Helvetica, Arial-Unicode, Arial, Sans-serif">from the Noun Project</text></svg>