<svg xmlns="http://www.w3.org/2000/svg" xmlns:xlink="http://www.w3.org/1999/xlink" version="1.1" x="0px" y="0px" viewBox="0 0 90 112.5" enable-background="new 0 0 90 90" xml:space="preserve"><g><path fill="none" d="M35.5,75.7c-0.3-0.3-0.6-0.1-0.6,0.1c-0.2,0.4-0.2,0.4-1.6,3.3c-0.1,0.3-0.1,0.7,0.1,1c0.9,1,2,2.3,2.9,3.2   c0.3,0.3,0.5,0,0.5,0c0,0,0-0.1,0.1-0.1c0.4-1,1.1-2.3,1.6-3.2c0.2-0.5,0-0.8,0-0.9C37.6,77.8,36.5,76.8,35.5,75.7z"/><path fill="none" d="M16.1,44.5c-0.4-0.4-0.4-0.4-2.9,2.8c-0.2,0.3-0.2,0.6,0,0.9c0.8,1,2,2.2,2.9,3.2c0.3,0.3,0.6,0,0.6,0   c0,0,0.1-0.1,0.1-0.1c0.6-0.9,1.5-2,2.2-2.8c0.3-0.4,0.1-0.8,0.1-0.8C18.2,46.5,17.1,45.5,16.1,44.5z"/><path fill="none" d="M12.2,49.8c-0.3-0.3-0.5-0.1-0.6,0.1c-0.2,0.4-0.2,0.4-1.6,3.3c-0.1,0.3-0.1,0.7,0.1,1c0.8,1,2,2.2,2.9,3.2   c0.3,0.3,0.5,0,0.5-0.1c0,0,0-0.1,0.1-0.1c0.4-1,1.1-2.3,1.5-3.2c0.2-0.5,0-0.8,0-0.9C14.3,51.8,13.2,50.9,12.2,49.8z"/><path fill="none" d="M34.5,35.4c-0.8-1.2-1.9-2.1-2.9-3.2c-0.4-0.4-0.4-0.4-3.7,1.8c-0.3,0.2-0.3,0.5-0.1,0.7c0.8,1,2,2.2,2.9,3.2   c0.3,0.3,0.7,0.1,0.7,0.1c1.1-0.5,2-1.3,3-2C34.7,35.8,34.5,35.4,34.5,35.4z"/><path fill="none" d="M36,34.3c0.4,0.4,0.4,0.4,1.9-0.6l1.7-1.1c0.3-0.2,0.2-0.5,0.1-0.6c-0.9-1.2-1.9-2.1-2.9-3.2   c-0.4-0.4-0.4-0.4-2.6,1l-1,0.6c-0.3,0.2-0.3,0.5-0.1,0.7C34,32.1,35.1,33.4,36,34.3z"/><path fill="none" d="M26.1,35.8c-0.4-0.4-0.4-0.4-2.1,0.9l-1.5,1.2c-0.3,0.2-0.3,0.5-0.1,0.8v0c0.8,1,2,2.2,2.9,3.2   c0.4,0.4,0.4,0.4,2.4-1.1l1.3-0.9c0.4-0.3,0.2-0.7,0.2-0.7C28.2,37.8,27.1,36.9,26.1,35.8z"/><path fill="none" d="M20.9,39.8c-0.4-0.4-0.4-0.4-2.5,1.5l-0.9,0.8c-0.2,0.3-0.2,0.6,0,0.8v0c0.8,1,2,2.2,2.9,3.2   c0.4,0.4,0.4,0.3,1.6-0.9l1.7-1.6c0.4-0.4,0.2-0.7,0.1-0.7C22.9,41.9,21.8,40.9,20.9,39.8z"/><path fill="none" d="M41.2,31c0.4,0.4,0.4,0.4,2.1-0.8l1.2-0.8c0.3-0.2,0.2-0.5,0.1-0.6c-0.9-1.2-1.9-2.1-2.9-3.2   c-0.4-0.4-0.4-0.4-1.9,0.7l-1.3,0.9c-0.2,0.2-0.3,0.4-0.1,0.7C39.2,28.8,40.4,30.1,41.2,31z"/><path fill="none" d="M58.9,11.4c0.3,0.3,0.5,0.1,0.6,0c0.2-0.4,0.8-1.9,1.1-2.8c0.1-0.5,0.1-0.5-3.1-4c-0.3-0.3-0.5-0.1-0.5,0   c0,0,0,0.1-0.1,0.1c-0.3,0.8-0.7,1.9-1.1,2.7C55.7,7.7,55.8,8,56,8.2C56.8,9.2,58,10.4,58.9,11.4z"/><path fill="none" d="M45.8,27.8c0.5,0.4,0.5,0.5,4-2.8c0.3-0.3,0.2-0.7,0.1-0.8c-0.8-1.2-2-2.1-2.9-3.2c-0.3-0.3-0.7,0-0.7,0   c-0.1,0-0.1,0.1-0.2,0.2c-0.9,0.8-2.1,1.9-3,2.7c-0.3,0.3-0.4,0.6-0.2,0.8C43.7,25.6,44.9,26.9,45.8,27.8z"/><path fill="none" d="M55.7,16.9c0.4,0.4,0.4,0.4,1.7-1.8l0.7-1.3c0.2-0.3,0.1-0.7-0.1-0.9c-0.9-1.2-2-2.1-3-3.2   c-0.4-0.4-0.4-0.4-1.4,1.4c-0.3,0.5-0.7,1.2-1,1.6c-0.2,0.3-0.2,0.7,0,0.9C53.7,14.7,54.9,16,55.7,16.9z"/><path fill="none" d="M51.4,22.6c0.4,0.4,0.5,0.3,1.6-1c0.5-0.6,1.1-1.4,1.6-2c0.3-0.4,0.1-0.7,0-0.9c-0.8-1.2-2-2.1-2.9-3.2   c-0.4-0.3-0.4-0.3-2.3,2.1l-0.8,0.9c-0.2,0.3-0.3,0.6-0.1,0.9C49.3,20.4,50.5,21.6,51.4,22.6z"/><path fill="none" d="M49.6,61.6c-0.4-0.4-0.4-0.4-2.1,0.9l-1.5,1.2c-0.3,0.2-0.3,0.5-0.1,0.8c0.9,1,2.1,2.3,2.9,3.2   c0.4,0.4,0.4,0.4,2.4-1.1l1.3-1c0.3-0.2,0.3-0.5,0.1-0.7C51.7,63.6,50.6,62.7,49.6,61.6z"/><path fill="none" d="M70.5,46.6c-0.3-0.3-0.7,0-0.8,0c-0.1,0-0.1,0.1-0.2,0.2c-0.9,0.8-2.1,1.9-3,2.7c-0.3,0.3-0.4,0.6-0.1,0.8v0   c0.9,1,2.1,2.2,3,3.2c0.5,0.5,0.5,0.5,4-2.8c0.3-0.3,0.2-0.7,0.1-0.8C72.7,48.6,71.5,47.7,70.5,46.6z"/><path fill="none" d="M78.9,35.4c-0.4-0.4-0.4-0.4-1.4,1.4c-0.3,0.5-0.7,1.2-1,1.7c-0.2,0.3-0.2,0.7,0,0.9c0.9,1,2.1,2.2,3,3.2   c0.4,0.4,0.4,0.4,1.8-1.8l0.8-1.3c0.2-0.3,0.1-0.7-0.1-0.9C81.1,37.4,79.9,36.4,78.9,35.4z"/><path fill="none" d="M39.5,70.4c-0.4-0.4-0.4-0.4-2.9,2.8c-0.2,0.3-0.2,0.6,0,0.9v0c0.9,1,2,2.3,2.9,3.2c0.3,0.3,0.6,0,0.6,0   c0,0,0.1-0.1,0.1-0.1c0.6-0.9,1.5-2,2.2-2.8c0.3-0.4,0.1-0.8,0.1-0.8C41.6,72.4,40.5,71.5,39.5,70.4z"/><path fill="none" d="M80.8,30c0,0,0,0.1-0.1,0.1c-0.3,0.8-0.8,1.9-1.1,2.7c-0.1,0.3-0.1,0.6,0.1,0.9v0c0.9,1,2.1,2.2,3,3.2   c0.3,0.3,0.5,0.1,0.6,0c0.2-0.3,0.9-1.9,1.2-2.8c0.1-0.5,0.1-0.5-3.2-4C81,29.8,80.8,30,80.8,30z"/><path fill="none" d="M75.3,41.1c-0.4-0.4-0.4-0.4-2.3,2.1l-0.8,1c-0.2,0.3-0.3,0.6-0.1,0.9c0.9,1,2.1,2.2,3,3.2   c0.4,0.4,0.5,0.3,1.6-1c0.5-0.6,1.1-1.4,1.6-2c0.3-0.4,0.1-0.7,0-0.9C77.4,43.1,76.3,42.1,75.3,41.1z"/><path fill="none" d="M55,57.9c-0.4-0.4-0.4-0.4-3.8,1.8c-0.3,0.2-0.3,0.5-0.1,0.7c0.9,1,2.1,2.3,2.9,3.2c0.3,0.3,0.8,0.1,0.8,0.1   c1.1-0.5,2-1.3,3-2c0.4-0.3,0.2-0.6,0.1-0.7C57.2,60,56,59,55,57.9z"/><path fill="none" d="M44.3,65.7c-0.4-0.4-0.4-0.4-2.6,1.6l-0.9,0.8c-0.2,0.3-0.2,0.6,0,0.8c0.9,1,2.1,2.3,2.9,3.2   c0.4,0.4,0.4,0.3,1.6-0.9l1.7-1.6c0.3-0.3,0.2-0.6,0.1-0.8C46.4,67.8,45.3,66.8,44.3,65.7z"/><path fill="none" d="M65.2,51.2c-0.4-0.4-0.4-0.4-1.9,0.7l-1.3,0.9c-0.2,0.2-0.3,0.5-0.1,0.7c0.9,1,2.1,2.2,2.9,3.2   c0.4,0.4,0.4,0.4,2.1-0.8l1.2-0.8c0.3-0.3,0.1-0.6,0.1-0.7C67.3,53.3,66.2,52.3,65.2,51.2z"/><path fill="none" d="M60.3,54.5c-0.4-0.4-0.4-0.4-2.6,1l-1,0.7c-0.3,0.2-0.3,0.5-0.1,0.7c0.9,1,2.1,2.3,2.9,3.2   c0.4,0.4,0.4,0.4,1.9-0.6l1.8-1.1c0.4-0.3,0.1-0.6,0.1-0.7C62.4,56.6,61.3,55.6,60.3,54.5z"/><path d="M85.3,31.9c-0.1,0.1-0.2,0.2-0.5,0c-0.9-1-2.1-2.2-3-3.2c-0.2-0.2-0.3-0.6-0.3-0.8c0.1-0.5,0.3-1.2,0.4-1.7L61.6,5   c-0.2,1-0.3,1.3-0.3,1.4c0,0.1-0.2,0.2-0.5,0c-0.9-0.9-2.1-2.2-2.9-3.1v0c-0.2-0.2-0.3-0.6-0.3-0.8c0.1-0.4,0.2-0.8,0.3-1.3L56.8,0   c-0.5,2.8-1.8,6.2-4,10.1c-1.3,2.2-2.4,3.8-4.5,6.4c-3.3,3.8-5.6,5.8-9.6,8.7c-2.5,1.7-2.5,1.7-5.4,3.5c-5.7,3.6-6.8,4.3-10.3,6.8   c-2.5,1.9-3.2,2.5-5.7,4.7c-5.1,5.2-8.2,9.4-9.8,17.1l1,1.1L9,56.1c0.1-0.1,0.3-0.2,0.4-0.3c0.9,1,2.1,2.3,3,3.3   c0.3,0.6,0.3,0.6-0.3,3.4c1.4,1.5,3.2,3.6,4.6,5.1c0.7,0.8,1.6,1.8,2.3,2.6c1.4,1.5,3.2,3.6,4.6,5.1c1.4,1.5,3.2,3.6,4.6,5.2   c1.1,1.2,2.5,2.8,3.5,4l0.6-2.4c0.1-0.1,0.3-0.2,0.4-0.3c0.9,1,2.2,2.3,3.1,3.4c0.3,0.6,0.3,0.6-0.4,3.4l1.3,1.5   c1.5-6.2,3.6-10.8,10.1-17.2c2.4-2.1,2.8-2.5,5.7-4.8c3.6-2.7,4.7-3.4,10.3-7c3.3-2.1,3.6-2.3,5.5-3.6c3-2.1,5.7-4.1,9.7-8.8   c1.7-2.1,2.8-3.5,4.6-6.4c2.5-4.3,3.9-7.8,4.4-10.7l-1.3-1.4C85.4,31.5,85.3,31.8,85.3,31.9z M55.8,7.4c0.3-0.8,0.8-1.9,1.1-2.7   c0,0,0-0.1,0.1-0.1c0,0,0.2-0.3,0.5,0c3.3,3.5,3.3,3.5,3.1,4c-0.4,0.9-0.9,2.5-1.1,2.8c-0.1,0.1-0.3,0.3-0.6,0   C58,10.4,56.8,9.2,56,8.2C55.8,8,55.7,7.7,55.8,7.4z M52.8,12.9c0.3-0.5,0.7-1.1,1-1.6c1-1.8,1-1.8,1.4-1.4c1,1.1,2.1,2,3,3.2   c0.1,0.2,0.2,0.5,0.1,0.9l-0.7,1.3c-1.3,2.1-1.3,2.1-1.7,1.8c-0.9-0.9-2.1-2.2-2.9-3.1C52.6,13.5,52.6,13.2,52.8,12.9z M48.5,18.6   l0.8-0.9c1.9-2.4,1.9-2.4,2.3-2.1c1,1.1,2.1,2,2.9,3.2c0.1,0.1,0.2,0.5,0,0.9c-0.5,0.6-1.1,1.4-1.6,2c-1.1,1.3-1.2,1.4-1.6,1   c-0.9-0.9-2.1-2.2-2.9-3.1C48.3,19.2,48.3,18.9,48.5,18.6z M43,23.8c0.9-0.8,2.1-1.8,3-2.7c0.1-0.1,0.1-0.1,0.2-0.2   c0,0,0.4-0.3,0.7,0c1,1.1,2.1,2,2.9,3.2c0.1,0.1,0.2,0.5-0.1,0.8c-3.5,3.2-3.5,3.2-4,2.8c-0.9-0.9-2.1-2.2-2.9-3.1   C42.7,24.4,42.7,24.1,43,23.8z M38.4,27.2l1.3-0.9c1.5-1.1,1.5-1.1,1.9-0.7c1,1.1,2.1,2,2.9,3.2c0.1,0.2,0.2,0.4-0.1,0.6l-1.2,0.8   c-1.7,1.2-1.7,1.2-2.1,0.8c-0.9-0.9-2-2.2-2.9-3.1C38.1,27.6,38.2,27.4,38.4,27.2z M33.2,30.5l1-0.6c2.2-1.4,2.2-1.4,2.6-1   c1,1.1,2.1,2,2.9,3.2c0.1,0.1,0.2,0.4-0.1,0.6l-1.7,1.1c-1.4,0.9-1.5,0.9-1.9,0.6c-0.9-0.9-2-2.2-2.9-3.2   C32.9,30.9,33,30.7,33.2,30.5z M15.2,53.9c-0.5,1-1.1,2.2-1.5,3.2c0,0,0,0.1-0.1,0.1c-0.1,0.1-0.2,0.3-0.5,0.1   c-0.9-1-2-2.2-2.9-3.2c-0.2-0.3-0.3-0.6-0.1-1c1.3-2.9,1.3-2.9,1.6-3.3c0.1-0.1,0.3-0.3,0.6-0.1c1,1.1,2,2,2.9,3.2   C15.2,53.1,15.4,53.4,15.2,53.9z M19,48.5c-0.7,0.8-1.5,1.9-2.2,2.8c0,0-0.1,0.1-0.1,0.1c0,0-0.3,0.3-0.6,0c-0.9-1-2-2.2-2.9-3.2   c-0.2-0.2-0.2-0.6,0-0.9c2.5-3.3,2.5-3.3,2.9-2.8c1,1.1,2.1,2,2.9,3.2C19.1,47.7,19.3,48.1,19,48.5z M23.7,43.8l-1.7,1.6   c-1.2,1.2-1.3,1.2-1.6,0.9c-0.9-1-2-2.2-2.9-3.2v0c-0.2-0.2-0.2-0.6,0-0.8l0.9-0.8c2.1-1.9,2.1-1.9,2.5-1.5c1,1.1,2.1,2,2.9,3.2   C23.8,43.1,24,43.4,23.7,43.8z M28.9,39.7l-1.3,0.9c-2,1.5-2,1.5-2.4,1.1c-0.9-1-2-2.2-2.9-3.2v0c-0.2-0.2-0.2-0.5,0.1-0.8l1.5-1.2   c1.7-1.3,1.7-1.3,2.1-0.9c1,1.1,2.1,2,2.9,3.2C29.1,39,29.3,39.4,28.9,39.7z M31.3,38c0,0-0.4,0.2-0.7-0.1c-0.9-0.9-2-2.2-2.9-3.2   c-0.2-0.2-0.1-0.5,0.1-0.7c3.3-2.2,3.3-2.2,3.7-1.8c1,1.1,2.1,2,2.9,3.2c0,0,0.3,0.4-0.1,0.7C33.3,36.7,32.4,37.5,31.3,38z    M38.5,79.9c-0.5,1-1.1,2.2-1.6,3.2c0,0,0,0.1-0.1,0.1c-0.1,0.1-0.3,0.3-0.5,0c-0.9-1-2.1-2.3-2.9-3.2c-0.2-0.3-0.3-0.6-0.1-1   c1.4-2.9,1.4-2.9,1.6-3.3c0.1-0.1,0.3-0.3,0.6-0.1c1,1.1,2.1,2.1,3,3.3C38.5,79.1,38.8,79.4,38.5,79.9z M42.4,74.5   c-0.7,0.8-1.6,1.9-2.2,2.8c0,0-0.1,0.1-0.1,0.1c0,0-0.3,0.3-0.6,0c-0.9-1-2.1-2.3-2.9-3.2v0c-0.2-0.3-0.2-0.6,0-0.9   c2.5-3.3,2.5-3.3,2.9-2.8c1,1.1,2.1,2.1,3,3.3C42.5,73.7,42.7,74.1,42.4,74.5z M47.1,69.7l-1.7,1.6c-1.2,1.2-1.3,1.2-1.6,0.9   c-0.9-1-2.1-2.2-2.9-3.2c-0.2-0.3-0.2-0.6,0-0.8l0.9-0.8c2.1-2,2.1-2,2.6-1.6c1,1.1,2.1,2.1,3,3.3C47.4,69.2,47.4,69.5,47.1,69.7z    M52.4,65.6l-1.3,1c-2,1.5-2,1.5-2.4,1.1c-0.9-1-2.1-2.2-2.9-3.2c-0.2-0.3-0.2-0.6,0.1-0.8l1.5-1.2c1.7-1.3,1.7-1.3,2.1-0.9   c1,1.1,2.1,2.1,3,3.3C52.7,65,52.7,65.3,52.4,65.6z M57.9,61.8c-1,0.7-1.9,1.5-3,2c0,0-0.4,0.2-0.8-0.1c-0.9-1-2.1-2.2-2.9-3.2   c-0.2-0.2-0.2-0.5,0.1-0.7c3.3-2.2,3.3-2.2,3.8-1.8c1,1.1,2.1,2.1,3,3.3C58,61.2,58.3,61.5,57.9,61.8z M63.2,58.4l-1.8,1.1   c-1.5,0.9-1.5,1-1.9,0.6c-0.9-1-2.1-2.2-2.9-3.2c-0.2-0.2-0.2-0.5,0.1-0.7l1-0.7c2.2-1.4,2.2-1.4,2.6-1c1,1.1,2.1,2.1,3,3.3   C63.3,57.8,63.6,58.1,63.2,58.4z M68.1,55.1l-1.2,0.8c-1.7,1.2-1.7,1.2-2.1,0.8c-0.9-1-2.1-2.2-2.9-3.2c-0.2-0.2-0.2-0.5,0.1-0.7   l1.3-0.9c1.5-1.1,1.5-1.1,1.9-0.7c1,1.1,2.1,2.1,3,3.2C68.2,54.5,68.4,54.8,68.1,55.1z M73.4,50.7c-3.5,3.2-3.5,3.2-4,2.8   c-0.9-1-2.1-2.2-3-3.2v0c-0.2-0.3-0.2-0.6,0.1-0.8c0.9-0.8,2.2-1.8,3-2.7c0.1-0.1,0.1-0.1,0.2-0.2c0,0,0.4-0.3,0.8,0   c1,1.1,2.1,2,3,3.2C73.6,50,73.7,50.3,73.4,50.7z M78.3,45.2c-0.5,0.6-1.1,1.4-1.6,2c-1.1,1.3-1.2,1.4-1.6,1c-0.9-1-2.1-2.2-3-3.2   c-0.2-0.2-0.2-0.6,0.1-0.9l0.8-1c2-2.4,2-2.4,2.3-2.1c1,1.1,2.1,2,3,3.2C78.4,44.5,78.5,44.8,78.3,45.2z M82,39.5l-0.8,1.3   c-1.3,2.1-1.3,2.1-1.8,1.8c-0.9-1-2.1-2.2-3-3.2c-0.2-0.2-0.2-0.6,0-0.9c0.3-0.5,0.7-1.1,1-1.7c1-1.8,1-1.8,1.4-1.4   c1,1.1,2.1,2.1,3,3.2C82.1,38.8,82.2,39.1,82,39.5z M84.5,34.1c-0.3,0.9-1,2.5-1.2,2.8c-0.1,0.1-0.3,0.3-0.6,0   c-0.9-1-2.1-2.2-3-3.2v0c-0.2-0.2-0.3-0.6-0.1-0.9c0.4-0.8,0.8-1.9,1.1-2.7c0,0,0-0.1,0.1-0.1c0,0,0.2-0.3,0.5,0   C84.7,33.7,84.7,33.7,84.5,34.1z"/></g><text x="0" y="105" fill="#000000" font-size="5px" font-weight="bold" font-family="'Helvetica Neue', Helvetica, Arial-Unicode, Arial, Sans-serif">Created by Loïc Poivet</text><text x="0" y="110" fill="#000000" font-size="5px" font-weight="bold" font-family="'Helvetica Neue', Helvetica, Arial-Unicode, Arial, Sans-serif">from the Noun Project</text></svg>