<svg xmlns="http://www.w3.org/2000/svg" xmlns:xlink="http://www.w3.org/1999/xlink" version="1.1" x="0px" y="0px" viewBox="0 0 100 125" style="enable-background:new 0 0 100 100;" xml:space="preserve"><path d="M78,31.1H65.5V27c0-8.9-7-16.1-15.5-16.1S34.5,18.1,34.5,27v4.1H22c-1.1,0-2,0.9-2,2v50c0,3.3,2.7,6,6,6h48c3.3,0,6-2.7,6-6  v-50C80,32,79.1,31.1,78,31.1z M39.5,27c0-6.1,4.7-11.1,10.5-11.1s10.5,5,10.5,11.1v4.1h-21V27z"/><text x="0" y="115" fill="#000000" font-size="5px" font-weight="bold" font-family="'Helvetica Neue', Helvetica, Arial-Unicode, Arial, Sans-serif">Created by Shastry</text><text x="0" y="120" fill="#000000" font-size="5px" font-weight="bold" font-family="'Helvetica Neue', Helvetica, Arial-Unicode, Arial, Sans-serif">from the Noun Project</text></svg>