<svg xmlns="http://www.w3.org/2000/svg" xmlns:xlink="http://www.w3.org/1999/xlink" version="1.1" x="0px" y="0px" viewBox="0 0 100 125" enable-background="new 0 0 100 100" xml:space="preserve"><path d="M95.398,29.795c-2.154-5.555-6.162-9.18-8.955-8.102v-0.002l-3.689,1.432c-5.361-6.569-12.465-9.764-18.359-7.477  c-0.01,0.003-0.018,0.009-0.026,0.013l-18.035,6.997l-8.949,0.114l-24.611,9.547l0.006,0.016c-0.143,0.049-0.287,0.093-0.428,0.147  C3.017,36.101-0.091,50.527,5.409,64.703s17.524,22.732,26.858,19.111c0.141-0.056,0.276-0.121,0.415-0.181l0.006,0.017l15.8-6.129  h8.722v8.957h8v-8.957h14.375v-15.42l2.459-0.955l-0.002-0.004c0.001,0,0.003-0.002,0.004-0.002  c5.89-2.285,8.963-9.432,8.497-17.889l3.695-1.434c0.003-0.001,0.006-0.001,0.009-0.002C97.037,40.733,97.553,35.352,95.398,29.795z   M28.816,79.615c-6.708,2.604-15.769-4.624-20.238-16.143C4.11,51.956,5.926,40.509,12.635,37.907  c6.708-2.603,15.77,4.624,20.238,16.142C37.341,65.566,35.525,77.014,28.816,79.615z M82.455,43.047  c0.3,0.772-0.084,1.641-0.855,1.941l-13.845,5.371c-0.179,0.069-0.362,0.102-0.543,0.102c-0.601,0-1.168-0.364-1.397-0.958  c-0.301-0.772,0.084-1.641,0.854-1.941l13.845-5.371C81.285,41.891,82.154,42.274,82.455,43.047z M81.787,34.406  c0.3,0.771-0.084,1.642-0.855,1.941l-13.848,5.371c-0.178,0.069-0.361,0.102-0.542,0.102c-0.601,0-1.168-0.364-1.397-0.958  C64.844,40.09,65.229,39.22,66,38.921l13.848-5.371C80.615,33.249,81.486,33.633,81.787,34.406z M55.324,28.478  c-0.18,0.069-0.362,0.102-0.543,0.102c-0.602,0-1.168-0.364-1.398-0.958c-0.3-0.772,0.084-1.641,0.855-1.941l13.845-5.371  c0.771-0.3,1.642,0.083,1.94,0.856c0.301,0.772-0.084,1.641-0.854,1.941L55.324,28.478z M61.209,34.986  c-0.602,0-1.168-0.364-1.398-0.958c-0.299-0.772,0.084-1.642,0.856-1.941l13.847-5.37c0.768-0.3,1.641,0.083,1.939,0.856  c0.3,0.771-0.084,1.642-0.855,1.941l-13.847,5.37C61.573,34.954,61.391,34.986,61.209,34.986z M71.584,69.521h-9.141l1.537-1.369  l7.604-2.949V69.521z M81.801,53.812l-13.846,5.369c-0.178,0.069-0.361,0.103-0.542,0.103c-0.601,0-1.168-0.363-1.397-0.958  c-0.301-0.771,0.084-1.641,0.855-1.94l13.846-5.37c0.77-0.301,1.641,0.084,1.94,0.856S82.573,53.514,81.801,53.812z"/><text x="0" y="115" fill="#000000" font-size="5px" font-weight="bold" font-family="'Helvetica Neue', Helvetica, Arial-Unicode, Arial, Sans-serif">Created by Olyn LeRoy</text><text x="0" y="120" fill="#000000" font-size="5px" font-weight="bold" font-family="'Helvetica Neue', Helvetica, Arial-Unicode, Arial, Sans-serif">from the Noun Project</text></svg>