<svg xmlns="http://www.w3.org/2000/svg" xmlns:xlink="http://www.w3.org/1999/xlink" version="1.1" x="0px" y="0px" viewBox="0 0 512 640" enable-background="new 0 0 512 512" xml:space="preserve"><path d="M424.3,181c15.4,0,24.3-17.6,15-30l-56.1-75c-3.6-4.7-9-7.5-15-7.5h-225c-5.8,0-11.4,2.8-15,7.5l-55.6,75.1  c-9.2,12.4-0.3,29.9,15.1,29.9h36.9v75H87v168.7h37.5v18.7H162v-18.7h187.5v18.7H387v-18.7h37.5V256H387v-75H424.3z M387,387.3  H124.5v-93.7H387V387.3z M162,256v-75h187.5v75H162z M124.5,143.5l28.1-37.5h206.2l28.1,37.5H124.5z"/><text x="0" y="527" fill="#000000" font-size="5px" font-weight="bold" font-family="'Helvetica Neue', Helvetica, Arial-Unicode, Arial, Sans-serif">Created by Creative Stall</text><text x="0" y="532" fill="#000000" font-size="5px" font-weight="bold" font-family="'Helvetica Neue', Helvetica, Arial-Unicode, Arial, Sans-serif">from the Noun Project</text></svg>