<svg xmlns="http://www.w3.org/2000/svg" data-name="Layer 1" viewBox="0 0 100 125" x="0px" y="0px"><title>all</title><g><path d="M99.88,75.83H100V1.29L100,1H99.89L27.36,10.76h0v58.9a23.65,23.65,0,0,0-9.47-1C7.23,69.74-.75,77.32.06,85.65s10.1,14.24,20.76,13.2S39.45,90.22,38.64,81.9c0-.14,0-0.28-0.07-0.42h0.09V30.39l50-7.3V64a23.64,23.64,0,0,0-9.47-1c-10.66,1-18.64,8.62-17.83,16.95s10.1,14.24,20.76,13.2,18.64-8.62,17.83-16.95C99.93,76.11,99.89,76,99.88,75.83Z"/></g><text x="0" y="115" fill="#000000" font-size="5px" font-weight="bold" font-family="'Helvetica Neue', Helvetica, Arial-Unicode, Arial, Sans-serif">Created by i cons</text><text x="0" y="120" fill="#000000" font-size="5px" font-weight="bold" font-family="'Helvetica Neue', Helvetica, Arial-Unicode, Arial, Sans-serif">from the Noun Project</text></svg>