<?xml version="1.0" encoding="utf-8"?>
<!-- Generator: Adobe Illustrator 22.1.0, SVG Export Plug-In . SVG Version: 6.00 Build 0)  -->
<svg version="1.1"
	 id="レイヤー_1" xmlns:cc="http://creativecommons.org/ns#" xmlns:dc="http://purl.org/dc/elements/1.1/" xmlns:inkscape="http://www.inkscape.org/namespaces/inkscape" xmlns:rdf="http://www.w3.org/1999/02/22-rdf-syntax-ns#" xmlns:sodipodi="http://sodipodi.sourceforge.net/DTD/sodipodi-0.dtd" xmlns:svg="http://www.w3.org/2000/svg"
	 xmlns="http://www.w3.org/2000/svg" xmlns:xlink="http://www.w3.org/1999/xlink" x="0px" y="0px" viewBox="0 0 100 125"
	 style="enable-background:new 0 0 100 125;" xml:space="preserve">
<style type="text/css">
	.st0{font-family:'Arial-BoldMT';}
	.st1{font-size:5px;}
</style>
<g transform="translate(0,-952.36218)">
	<path d="M50,957.4c-24.9,0-45,20.1-45,45c0,24.9,20.1,45,45,45s45-20.1,45-45C95,977.4,74.9,957.4,50,957.4z M55.3,972.4
		c1.8,0,3.2,0.6,4.4,1.8c1.2,1.2,1.8,2.7,1.8,4.4s-0.6,3.2-1.8,4.4s-2.7,1.8-4.4,1.8c-1.7,0-3.2-0.6-4.4-1.8s-1.8-2.7-1.8-4.4
		s0.6-3.2,1.8-4.4C52.1,973,53.5,972.4,55.3,972.4z M57.9,991.9v0.5c0,0-0.1,0-0.1,0l-8.5,29.6c-0.5,1.7-0.7,2.9-0.7,3.4
		c0,0.3,0.1,0.6,0.4,0.9c0.3,0.3,0.5,0.4,0.8,0.4c0.5,0,1.3,0.1,2.9-0.7c1.5-0.9,4.7-2.9,6.5-5.6l3.4,2c-4.3,7.4-12.2,10-17,10
		c-1.8,0-5.3-0.5-6.4-1.5c-1.1-1-1.6-2.4-1.6-3.9c0-1,0.2-2.4,0.7-4l5.9-20.3c0.6-2,0.8-2.4,0.8-3.4c0-0.6-0.3-1.2-0.8-1.7
		s-1.3-0.7-2.2-0.7c-0.4,0-0.9,0-1.5,0l0.6-2.5c5.6-0.8,11.2-1.2,16.7-2L57.9,991.9z"/>
</g>
<text transform="matrix(1 0 0 1 0 115)" class="st0 st1">Created by Gonzalo Bravo</text>
<text transform="matrix(1 0 0 1 0 120)" class="st0 st1">from the Noun Project</text>
</svg>
