<svg xmlns="http://www.w3.org/2000/svg" xmlns:xlink="http://www.w3.org/1999/xlink" version="1.1" x="0px" y="0px" viewBox="0 0 100 125" style="enable-background:new 0 0 100 100;" xml:space="preserve"><path d="M79.9,37.8l-7,12.2c-0.2,0.4-0.7,0.5-1.2,0.3L68,48.1v25.5c0,0.5-0.4,0.8-0.8,0.8H32.9c-0.5,0-0.8-0.4-0.8-0.8V48.1  l-3.7,2.2c-0.4,0.2-0.9,0.1-1.2-0.3l-7-12.2c-0.2-0.4-0.1-0.9,0.3-1.2l18.9-10.9c0.4-0.2,0.9-0.1,1.1,0.3c0.6,1,1.5,1.9,2.7,2.7  c1.8,1.1,4.2,1.8,6.8,1.8s5-0.7,6.8-1.8c1.2-0.7,2.1-1.6,2.7-2.7c0.2-0.4,0.7-0.5,1.1-0.3l18.9,10.9C80,36.8,80.1,37.4,79.9,37.8z"/><text x="0" y="115" fill="#000000" font-size="5px" font-weight="bold" font-family="'Helvetica Neue', Helvetica, Arial-Unicode, Arial, Sans-serif">Created by Mello</text><text x="0" y="120" fill="#000000" font-size="5px" font-weight="bold" font-family="'Helvetica Neue', Helvetica, Arial-Unicode, Arial, Sans-serif">from the Noun Project</text></svg>