<svg xmlns="http://www.w3.org/2000/svg" xmlns:xlink="http://www.w3.org/1999/xlink" viewBox="0 0 24 30" version="1.1" x="0px" y="0px"><title>money_042-coins-business-cash-finance</title><desc>Created with Sketch.</desc><g stroke="none" stroke-width="1" fill="none" fill-rule="evenodd"><g transform="translate(-93.000000, -236.000000)" fill="#000000"><g transform="translate(95.000000, 236.000000)"><path d="M20,3 C20,1.22345479 17.0637085,0 13.5,0 C9.9362915,0 7,1.22345479 7,3 C7,4.77654521 9.9362915,6 13.5,6 C17.0637085,6 20,4.77654521 20,3 Z M8,3 C8,2.01512146 10.4362915,1 13.5,1 C16.5637085,1 19,2.01512146 19,3 C19,3.98487854 16.5637085,5 13.5,5 C10.4362915,5 8,3.98487854 8,3 Z"/><path d="M7,6 C7,7.77654521 9.9362915,9 13.5,9 C17.0637085,9 20,7.77654521 20,6 L20,3 L19,3 L19,6 C19,6.98487854 16.5637085,8 13.5,8 C10.4362915,8 8,6.98487854 8,6 L8,3 L7,3 L7,6 Z"/><path d="M7.00002545,9.00905676 C7.00000849,9.00603944 7,9.00302052 7,9 L7,6 L8,6 L8,9 C8,9.0278569 8.00194908,9.055738 8.00580631,9.08361963 C7.68215227,9.04702052 7.3459574,9.02162613 7.00002545,9.00905676 Z M12.0195338,11.9272193 C12.4957767,11.9750906 12.9915013,12 13.5,12 C17.0637085,12 20,10.7765452 20,9 L20,6 L19,6 L19,9 C19,9.98487854 16.5637085,11 13.5,11 C12.9767605,11 12.4718214,10.970391 11.9941937,10.9163804 C11.9980509,10.944262 12,10.9721431 12,11 C12,11.0830652 12.0073345,11.4215956 12.0195338,11.9272193 Z"/><path d="M12.0963746,14.9347277 C12.5490201,14.9776924 13.0187901,15 13.5,15 C17.0637085,15 20,13.7765452 20,12 L20,9 L19,9 L19,12 C19,12.9848785 16.5637085,14 13.5,14 C13.0043637,14 12.525148,13.9734326 12.0700116,13.9247238 C12.0784358,14.2496779 12.0872888,14.5886845 12.0963746,14.9347277 Z M8,9.0829644 L8,9 L7,9 L7,9.00905584 C7.34387273,9.02154974 7.67812405,9.04671644 8,9.0829644 Z"/><path d="M13,12 C13,10.2234548 10.0637085,9 6.5,9 C2.9362915,9 0,10.2234548 0,12 C0,13.7765452 2.9362915,15 6.5,15 C10.0637085,15 13,13.7765452 13,12 Z M1,12 C1,11.0151215 3.4362915,10 6.5,10 C9.5637085,10 12,11.0151215 12,12 C12,12.9848785 9.5637085,14 6.5,14 C3.4362915,14 1,12.9848785 1,12 Z"/><path d="M0,15 C0,16.7765452 2.9362915,18 6.5,18 C10.0637085,18 13,16.7765452 13,15 L13,12 L12,12 L12,15 C12,15.9848785 9.5637085,17 6.5,17 C3.4362915,17 1,15.9848785 1,15 L1,12 L0,12 L0,15 Z"/><path d="M0,18 C0,19.7765452 2.9362915,21 6.5,21 C10.0637085,21 13,19.7765452 13,18 L13,15 L12,15 L12,18 C12,18.9848785 9.5637085,20 6.5,20 C3.4362915,20 1,18.9848785 1,18 L1,15 L0,15 L0,18 Z"/><path d="M0,21 C0,22.7765452 2.9362915,24 6.5,24 C10.0637085,24 13,22.7765452 13,21 L13,18 L12,18 L12,21 C12,21.9848785 9.5637085,23 6.5,23 C3.4362915,23 1,21.9848785 1,21 L1,18 L0,18 L0,21 Z"/><path d="M12.1762522,17.9420791 C12.6042043,17.9802342 13.047034,18 13.5,18 C17.0637085,18 20,16.7765452 20,15 L20,12 L19,12 L19,15 C19,15.9848785 16.5637085,17 13.5,17 C13.0330497,17 12.5806741,16.9764189 12.1492778,16.9329578 C12.1584704,17.2778007 12.1675258,17.6164602 12.1762522,17.9420791 Z"/><path d="M12.2573859,20.9490773 C12.6600925,20.9826484 13.0755971,21 13.5,21 C17.0637085,21 20,19.7765452 20,18 L20,15 L19,15 L19,18 C19,18.9848785 16.5637085,20 13.5,20 C13.0621089,20 12.637035,19.9792625 12.2300599,19.9408399 C12.2440255,20.4573825 12.2538996,20.8208527 12.2573867,20.9491069 Z"/></g></g></g><text x="0" y="39" fill="#000000" font-size="5px" font-weight="bold" font-family="'Helvetica Neue', Helvetica, Arial-Unicode, Arial, Sans-serif">Created by Pham Thi Dieu Linh</text><text x="0" y="44" fill="#000000" font-size="5px" font-weight="bold" font-family="'Helvetica Neue', Helvetica, Arial-Unicode, Arial, Sans-serif">from the Noun Project</text></svg>