<svg xmlns="http://www.w3.org/2000/svg" data-name="Layer 1" viewBox="0 0 100 125" x="0px" y="0px"><title>Icons</title><circle cx="78.34" cy="14.36" r="9.2"/><path d="M90,41.89H80.22L78.35,29.82a6.66,6.66,0,0,0-.18-1.19l0-.12v0a6.68,6.68,0,0,0-1.78-3.06,6.9,6.9,0,0,0-1.74-1.18l-5.87-3h0a6.41,6.41,0,0,0-2.95-.74H65l-16.54.2a5,5,0,0,0-3.79,1.76L34.14,35a5.12,5.12,0,0,0,.08,6.85,5,5,0,0,0,7.38-.24l9.19-10.82H56.4L39.23,52.56h0l.18-.23,0,0-.14.18-.09.12h0L28.42,66.24H10a5,5,0,0,0,0,10h20.8a5,5,0,0,0,3.91-1.89l9.63-12.2,10.76,7.11h0l2.6,1.72-10.87,16a5.12,5.12,0,0,0,.92,6.89A5,5,0,0,0,55,92.67L68.8,72.38a5,5,0,0,0-1.36-6.95l-9.13-6,12-16.25L71,47.63A5,5,0,0,0,76,51.85H90a5,5,0,0,0,0-10Z"/><text x="0" y="115" fill="#000000" font-size="5px" font-weight="bold" font-family="'Helvetica Neue', Helvetica, Arial-Unicode, Arial, Sans-serif">Created by Ethan Russon</text><text x="0" y="120" fill="#000000" font-size="5px" font-weight="bold" font-family="'Helvetica Neue', Helvetica, Arial-Unicode, Arial, Sans-serif">from the Noun Project</text></svg>